# xmcd CD database file
# Copyright (C) 1996 Ti Kan
#
# Track frame offsets:
#	150
#	23680
#	36252
#	51537
#	71925
#	88227
#	108827
#	119830
#	130392
#	144945
#	154212
#	172182
#	190672
#	203922
#	216220
#	229225
#
# Disc length: 3263 seconds
#
# Revision: 1
# Processed by: cddbd v1.4b41PL1 Copyright (c) Steve Scherf et al.
# Submitted via: EasyCD 2.21 - (C) 1996 Greg Leichner
#
DISCID=f80cbd10
DTITLE=Red Sovine - Sixteen Greatest Hits
DYEAR=1900
DGENRE=
TTITLE0=Teddy Bear
TTITLE1=I Didn't Jump The Fence
TTITLE2=It'll Come Back
TTITLE3=Little Joe
TTITLE4=Daddy's Girl
TTITLE5=Daddy
TTITLE6=I Know You're Married
TTITLE7=Love Is
TTITLE8=19 Wheels Hummin'
TTITLE9=Truck Drivin' Son Of a Gun
TTITLE10=Little Rosa
TTITLE11=Giddy-Up-Go
TTITLE12=Ole Rivers
TTITLE13=Days Of You and Me
TTITLE14=Colorado Kool Aid
TTITLE15=Phanton 309
EXTD=
EXTT0=
EXTT1=
EXTT2=
EXTT3=
EXTT4=
EXTT5=
EXTT6=
EXTT7=
EXTT8=
EXTT9=
EXTT10=
EXTT11=
EXTT12=
EXTT13=
EXTT14=
EXTT15=
PLAYORDER=
